<svg fill="none" xmlns="http://www.w3.org/2000/svg" viewBox="0 0 114 23">
  <path d="M10.3 22.485v-9.334c0-2.274-.77-3.334-2.574-3.334-1.984 0-2.813 1.12-2.813 3.394v9.274H0V5.665h4.588v1.787h.06c1.035-1.727 2.486-2.363 4.47-2.363 2.958 0 6.098 1.696 6.098 6.667v10.73H10.3zM26.79 23c-5.003 0-8.85-3.788-8.85-8.941 0-5.154 3.936-8.941 8.85-8.941 4.912 0 8.85 3.787 8.85 8.88 0 5.093-3.908 9-8.85 9V23zm3.937-8.941c0-2.243-1.657-4.244-3.967-4.244-2.162 0-3.908 1.94-3.908 4.244s1.717 4.244 3.938 4.244c2.22 0 3.937-2 3.937-4.244zm7.399 8.426V.057h4.912v22.427h-4.912v.001zm8.466-18.608V.057h4.913v3.818h-4.913v.002zm0 18.608V5.665h4.913v16.82h-4.913zm28.772 0v-9.06c0-2.637-.83-3.608-2.516-3.608-1.864 0-2.723 1.151-2.723 3.364v9.304h-4.913v-9.274c0-2.182-.77-3.394-2.457-3.394-1.924 0-2.783 1.273-2.783 3.607v9.061H55.06V5.665h4.589v1.787h.059c.859-1.577 2.427-2.363 4.529-2.363s3.7 1.09 4.735 3c1.183-1.91 2.959-3 5.21-3 3.67 0 6.098 2.304 6.098 7v10.394h-4.913l-.002.002zm8.377-18.608V.057h4.913v3.818h-4.913v.002zm0 18.608V5.665h4.913v16.82h-4.913zm9.59 0V9.483h-2.427V5.665h2.427V.057h4.913v5.608h2.368v3.818h-2.368v13.002h-4.913z" fill="#F3EFEB"/>
  <path d="M110.308 0h-7.338v3.78h4.726l-4.075 4.172 2.611 2.672 4.076-4.171v4.792H114V0h-3.692z" fill="#7600FF"/>
</svg>
